<svg xmlns="http://www.w3.org/2000/svg" viewBox="0 0 571.9 255.2"><g id="Layer_2" data-name="Layer 2"><g id="Layer_1-2" data-name="Layer 1"><path d="M23.6,114.3a10.3,10.3,0,0,1-1.5-5.9,27.3,27.3,0,0,1,.9-5.9,68.5,68.5,0,0,0,2.1-17.8V82.5a32.2,32.2,0,0,0-.5-6.6,43.3,43.3,0,0,0-1.7-6.3c-3.6-10-8.5-22.9-14.5-38.4a53.3,53.3,0,0,0-2.9-6.5c-1.2-2.8-2.1-4.9-2.6-6.4a23.2,23.2,0,0,1-.6-5.9,12.2,12.2,0,0,1,2-7A6,6,0,0,1,9.9,2.3H37.3a5.7,5.7,0,0,1,4.9,2.8,13.3,13.3,0,0,1,1.7,6.7,22.8,22.8,0,0,1-1.6,8.4c-.3.9-.5,1.8-.8,2.8a15.5,15.5,0,0,0-.3,3.1,22.1,22.1,0,0,0,.3,3.9c.3,1.2.7,2.7,1.3,4.5A14.3,14.3,0,0,0,44,37.6a1.5,1.5,0,0,0,1.3.9,1.5,1.5,0,0,0,1.2-.8,15,15,0,0,0,1.4-3.2,25.2,25.2,0,0,0,1.6-8.4,29.4,29.4,0,0,0-1-7.2,41.2,41.2,0,0,1-.9-6.8,12.6,12.6,0,0,1,1.9-7.2,5.6,5.6,0,0,1,4.9-2.6H70.2a5.1,5.1,0,0,1,4.5,2.6,12.2,12.2,0,0,1,1.8,6.9,16.2,16.2,0,0,1-.7,5.3c-.5,1.5-1.4,3.5-2.6,6.1s-2.7,5.4-3.7,7.8-3.6,9.5-6.6,17.5l-2,5.5c-2.5,7.1-4.3,12.3-5.3,16A48.5,48.5,0,0,0,54,82.5v2.2a74.8,74.8,0,0,0,2.1,17.8,27.3,27.3,0,0,1,.9,5.9,10.3,10.3,0,0,1-1.4,5.9,4.8,4.8,0,0,1-4.1,2.3H27.6A4.7,4.7,0,0,1,23.6,114.3Z" fill="#ec88b3"/><path d="M91,111.8c-5.3-4.7-9.5-11.5-12.5-20.5S74,71.7,74,59.4s1.5-23,4.5-32S85.7,11.8,91,7a26.5,26.5,0,0,1,35.9,0c5.2,4.8,9.4,11.5,12.4,20.4s4.6,19.8,4.6,32-1.6,22.9-4.6,31.9-7.2,15.8-12.4,20.5a26.2,26.2,0,0,1-35.9,0Zm20.4-25.4c.5-1.3.8-4.1,1.2-8.2s.3-10.4.3-18.8-.1-14.8-.3-18.9a45.7,45.7,0,0,0-1.2-8.2,2.8,2.8,0,0,0-2.5-1.9,2.5,2.5,0,0,0-2.3,1.9c-.6,1.5-1,4.1-1.2,8.2s-.5,10.4-.5,18.9.1,14.7.5,18.8.6,6.9,1.2,8.2,1.3,2.1,2.3,2.1S110.8,87.8,111.4,86.4Z" fill="#ec88b3"/><path d="M163.9,113.3c-5.1-3.7-9.2-9.1-12.2-16.1s-4.5-15.6-4.5-25.5.7-21.9,2-37.6c.1-2.1.2-3.7.2-4.9a38.9,38.9,0,0,0-1.2-10.1,28.5,28.5,0,0,1-1.1-8,12.2,12.2,0,0,1,1.7-6.4,5,5,0,0,1,4.4-2.4h22.3a5.4,5.4,0,0,1,4.7,2.4,13.6,13.6,0,0,1,1.5,6.9,60.8,60.8,0,0,1-.8,8.6c-.6,5.1-1.1,9.7-1.3,13.4-1,15.1-1.4,25.5-1.4,31.4,0,9,2,13.4,6,13.4,1.7,0,3.2-1.2,4.2-3.3s1.4-5.2,1.4-9.3c0-9-.4-19.4-1.2-31.7-.4-4.1-.9-9-1.9-14.7a40.9,40.9,0,0,1-1.1-8.6,10.1,10.1,0,0,1,1.7-6.2,5.6,5.6,0,0,1,4.8-2.3h12.5a5.9,5.9,0,0,1,4.9,2.3c1.1,1.4,1.6,3.6,1.6,6.3a59.7,59.7,0,0,1-.6,6.9,60.1,60.1,0,0,0-.8,9.3c0,2.5.1,4.3.2,5.7.8,8.7,1.4,16.5,1.7,23.2s.5,14,.5,21.4c0,9-1.3,16.7-4.1,22.9a30.4,30.4,0,0,1-11.1,13.8,29.8,29.8,0,0,1-16.4,4.8A27,27,0,0,1,163.9,113.3Z" fill="#ec88b3"/><path d="M216.5,108.1a53.4,53.4,0,0,1,1-8A90.9,90.9,0,0,0,219,85.9c.2-5.9.3-14.7.3-26.5s-.1-20.2-.3-26.4a114.6,114.6,0,0,0-1.5-14.2,54.9,54.9,0,0,1-1-8c0-5.7,2.1-8.5,6.2-8.5h31.9c8.4,0,15.2,2.8,20.4,8.3s7.8,14.1,7.8,25.3c0,6.6-.9,11.8-2.7,15.9a21.8,21.8,0,0,1-6.8,9.1,2.3,2.3,0,0,0-1.3,1.8,2.7,2.7,0,0,0,1.3,2.1,22.2,22.2,0,0,1,7,9.7,98.3,98.3,0,0,1,4.5,16.8c.3,1.6.7,3.9,1.5,6.8a32.8,32.8,0,0,1,1.1,4.1c.1,1.2.2,2.5.2,3.9,0,7.1-2.7,10.5-8.3,10.5H262.9c-5.7,0-8.4-3.8-8.4-11.3,0-2.8,0-5,.1-6.8V83.6a16.3,16.3,0,0,0-1-6.2c-.8-1.5-1.7-2.1-2.9-2.1a3,3,0,0,0-2.8,1.8,12.1,12.1,0,0,0-.8,4.9,78,78,0,0,0,.5,8,51.5,51.5,0,0,0,1.5,7.8l1.2,4.3a23.6,23.6,0,0,1,.7,5.5c0,6-2.3,9-6.8,9H222.7C218.6,116.6,216.5,113.8,216.5,108.1ZM253.8,47q1.8-2.4,1.8-7.5c0-3.4-.6-5.9-1.7-7.5a5.1,5.1,0,0,0-4.2-2.4,2.2,2.2,0,0,0-2,.8,5.9,5.9,0,0,0-.5,2.9V45.9c0,2.4.8,3.7,2.5,3.7S252.6,48.8,253.8,47Z" fill="#ec88b3"/><path d="M308.4,114.3a9.7,9.7,0,0,1-1.7-6.2,42.7,42.7,0,0,1,1-8,92.7,92.7,0,0,0,1.4-14.2c.2-5.9.3-14.7.3-26.5s-.1-20.2-.3-26.4a118.2,118.2,0,0,0-1.4-14.2,43.7,43.7,0,0,1-1-8c0-5.7,2.1-8.5,6.2-8.5h21.6a7,7,0,0,1,5.6,2.4,11,11,0,0,1,1.9,6.6,19.3,19.3,0,0,1-.5,4.5,30.8,30.8,0,0,1-1.6,4.9,41.4,41.4,0,0,0-2.6,13.4q-.3,10-.3,20.1t.3,22.5c.2,5.9,2.1,8.9,5.8,8.9a4.9,4.9,0,0,0,3.8-1.8,26.5,26.5,0,0,0,3.1-5.3,25.8,25.8,0,0,1,3.5-5.8,5.5,5.5,0,0,1,4.5-1.8,7.2,7.2,0,0,1,6,2.7,14.9,14.9,0,0,1,1.8,7.7c0,.8-.1,1.8-.2,3.1a155.2,155.2,0,0,0-1.4,18c-.1,4.7-1,8.3-2.6,10.6a7.8,7.8,0,0,1-7,3.6H313.4A5.9,5.9,0,0,1,308.4,114.3Z" fill="#ec88b3"/><path d="M384.4,111.8c-5.3-4.7-9.5-11.5-12.5-20.5s-4.5-19.6-4.5-31.9,1.5-23,4.5-32S379.1,11.8,384.4,7a26.3,26.3,0,0,1,17.9-7,26.6,26.6,0,0,1,18.1,7c5.2,4.8,9.4,11.5,12.3,20.4s4.6,19.8,4.6,32-1.6,22.9-4.6,31.9-7.1,15.8-12.3,20.5a26.2,26.2,0,0,1-18.1,7.1A25.9,25.9,0,0,1,384.4,111.8Zm20.4-25.4c.5-1.3.8-4.1,1.2-8.2s.3-10.4.3-18.8-.1-14.8-.3-18.9a45.7,45.7,0,0,0-1.2-8.2,2.8,2.8,0,0,0-2.5-1.9c-1,0-1.7.6-2.3,1.9s-1,4.1-1.2,8.2-.5,10.4-.5,18.9.2,14.7.5,18.8.6,6.9,1.2,8.2,1.3,2.1,2.3,2.1S404.2,87.8,404.8,86.4Z" fill="#ec88b3"/><path d="M462,114.8a11.1,11.1,0,0,1-3.7-5.1,48.7,48.7,0,0,1-2.5-9.8q-3.6-18.6-13.9-62.7a102.5,102.5,0,0,0-4.4-14.7c-.9-2.4-1.5-4.4-1.9-5.8a23,23,0,0,1-.5-4.5,12.6,12.6,0,0,1,2-7.1,6.8,6.8,0,0,1,5.8-2.8h24.8a6.4,6.4,0,0,1,5.2,2.4,12.6,12.6,0,0,1,1.9,7.2,38.9,38.9,0,0,1-.7,6.7,66.5,66.5,0,0,0-.9,9,127.9,127.9,0,0,0,2.7,23.2c.3,1.3.8,1.9,1.3,1.9s1.1-.6,1.4-1.8a154.7,154.7,0,0,0,2.9-27.1c0-1.4-.1-3.4-.2-5.8s-.2-4-.2-5.1c0-3.4.6-6.2,1.8-8s2.8-2.6,5.4-2.6h13.8a5.6,5.6,0,0,1,4.7,2.3,9.9,9.9,0,0,1,1.6,6,20.4,20.4,0,0,1-.9,5.7l-4.7,17.8c-5.7,21.9-10.4,45.4-14.4,70.4a15.9,15.9,0,0,1-3.8,8.8,9.5,9.5,0,0,1-7.4,3.3h-8.8A10.6,10.6,0,0,1,462,114.8Z" fill="#ec88b3"/><path d="M510.3,108.1a42.7,42.7,0,0,1,1-8,92.7,92.7,0,0,0,1.4-14.2c.2-5.9.3-14.7.3-26.5s-.1-20.2-.3-26.4a118.2,118.2,0,0,0-1.4-14.2,43.7,43.7,0,0,1-1-8c0-5.7,2.1-8.5,6.2-8.5h37.8c3.6,0,6.3,1,8,2.8s2.4,4.7,2.4,8.5a58.6,58.6,0,0,0,1.1,11.9,22.8,22.8,0,0,1,.3,3.6,12.5,12.5,0,0,1-2,7.5,6.3,6.3,0,0,1-5.5,3.1,5.7,5.7,0,0,1-3.9-1.2,23,23,0,0,1-3.6-3.2,18.3,18.3,0,0,0-2.8-2.8,4.8,4.8,0,0,0-3.1-1,3.5,3.5,0,0,0-3,1.6,10.6,10.6,0,0,0-1.2,5.3,7.4,7.4,0,0,0,1.5,4.9,4,4,0,0,0,3.4,1.8,7.8,7.8,0,0,0,3.5-1,6.8,6.8,0,0,1,3.8-1.2c2.3,0,4.2,1.3,5.4,4A27.4,27.4,0,0,1,560.5,58a32.5,32.5,0,0,1-1.9,11.7c-1.3,3.1-3.1,4.6-5.4,4.6a4,4,0,0,1-2.6-.8,8.4,8.4,0,0,1-1.2-1,5.2,5.2,0,0,0-3.5-1.8,4.4,4.4,0,0,0-3.4,1.6,7.4,7.4,0,0,0-1.5,4.9,8.6,8.6,0,0,0,1.7,5.7,4.9,4.9,0,0,0,4.3,2,7,7,0,0,0,4.7-1.5,12.5,12.5,0,0,0,3.6-3.9,21.2,21.2,0,0,1,3.2-3.7,5.4,5.4,0,0,1,3.9-1.2,6.3,6.3,0,0,1,5.4,2.8,15,15,0,0,1,1.9,7.8,17.4,17.4,0,0,1-.3,3.8,123.4,123.4,0,0,0-.8,13.4c0,4.7-1,8.1-3,10.6s-5,3.6-8.9,3.6H516.5C512.4,116.6,510.3,113.8,510.3,108.1Z" fill="#ec88b3"/><path d="M22.9,250.3a10.6,10.6,0,0,1-1.7-6.2,30.7,30.7,0,0,1,1-6.3,71.9,71.9,0,0,0,2.3-18.9v-2.4a46.8,46.8,0,0,0-.5-7,55.4,55.4,0,0,0-1.9-6.7c-3.8-10.6-9-24.3-15.6-40.8a42.1,42.1,0,0,0-3.1-7c-1.3-2.9-2.2-5.2-2.7-6.7A21.9,21.9,0,0,1,0,142a13.6,13.6,0,0,1,2.1-7.4,6.5,6.5,0,0,1,6.1-3.3H37.6a6.2,6.2,0,0,1,5.3,2.9,15.2,15.2,0,0,1,1.7,7.1,26.7,26.7,0,0,1-1.6,9.1,19.9,19.9,0,0,0-.9,2.9,16.9,16.9,0,0,0-.3,3.3,25.8,25.8,0,0,0,.3,4.2c.3,1.2.8,2.7,1.3,4.7a24.9,24.9,0,0,0,1.3,3.2,1.8,1.8,0,0,0,1.5,1.1,2.1,2.1,0,0,0,1.3-.9,23.6,23.6,0,0,0,1.4-3.4,26.5,26.5,0,0,0,1.8-8.9,32.4,32.4,0,0,0-1.1-7.6,38.7,38.7,0,0,1-.9-7.3,13.5,13.5,0,0,1,2-7.7,6,6,0,0,1,5.2-2.7h17a5.4,5.4,0,0,1,4.8,2.7,12.3,12.3,0,0,1,1.9,7.3,19.6,19.6,0,0,1-.7,5.8c-.6,1.5-1.5,3.6-2.8,6.4a67.4,67.4,0,0,0-3.9,8.3c-1.6,3.8-3.9,10.1-7.2,18.6l-2.1,5.9c-2.7,7.4-4.6,13-5.7,17a49.2,49.2,0,0,0-1.6,13.2v2.4a79.4,79.4,0,0,0,2.2,18.9,30.7,30.7,0,0,1,1,6.3,10.6,10.6,0,0,1-1.6,6.2,5.1,5.1,0,0,1-4.4,2.4H27.2A5,5,0,0,1,22.9,250.3Z" fill="#ec88b3"/><path d="M95.2,247.7c-5.7-5-10.2-12.3-13.4-21.9S76.9,205,76.9,192s1.7-24.5,4.9-34,7.7-16.7,13.4-21.7a28.6,28.6,0,0,1,38.6,0c5.6,5,10.1,12.1,13.3,21.7s4.8,21,4.8,34-1.6,24.3-4.8,33.8-7.7,16.9-13.3,21.9a28.6,28.6,0,0,1-38.6,0ZM117,220.6c.6-1.4,1-4.3,1.4-8.6s.3-11.2.3-20-.1-15.8-.3-20.1-.8-7.1-1.4-8.7a2.8,2.8,0,0,0-2.6-2.1c-1,0-1.9.7-2.5,2.1a40,40,0,0,0-1.3,8.7c-.3,4.3-.4,11.1-.4,20.1s.1,15.6.4,20a37.7,37.7,0,0,0,1.3,8.6c.6,1.6,1.5,2.3,2.5,2.3S116.5,222.2,117,220.6Z" fill="#ec88b3"/><path d="M173.5,249.3c-5.5-4-9.9-9.8-13.1-17.2s-4.9-16.5-4.9-27.1.7-23.2,2.2-39.9c.1-2.3.2-4,.2-5.2a44.4,44.4,0,0,0-1.3-10.8,31.7,31.7,0,0,1-1.2-8.5,12.2,12.2,0,0,1,1.8-6.7,5.3,5.3,0,0,1,4.7-2.6h24a5.5,5.5,0,0,1,5,2.6,13.3,13.3,0,0,1,1.7,7.3,77.2,77.2,0,0,1-.9,9.2c-.7,5.3-1.2,10.2-1.4,14.2-1.1,15.9-1.5,27.1-1.5,33.3,0,9.5,2.1,14.2,6.4,14.2,1.9,0,3.4-1.2,4.5-3.4s1.5-5.6,1.5-9.9c0-9.6-.4-20.7-1.3-33.7a145,145,0,0,0-2-15.6,48.1,48.1,0,0,1-1.2-9.2,11.4,11.4,0,0,1,1.8-6.6,6.2,6.2,0,0,1,5.2-2.4h13.4a6.4,6.4,0,0,1,5.3,2.4,11.8,11.8,0,0,1,1.7,6.8,53.1,53.1,0,0,1-.7,7.3,64.9,64.9,0,0,0-.8,9.8c0,2.6.1,4.6.2,6.1.9,9.2,1.5,17.5,1.8,24.7s.6,14.9.6,22.7c0,9.5-1.4,17.7-4.4,24.3s-6.9,11.4-12,14.7a31.8,31.8,0,0,1-17.5,5.1A29.7,29.7,0,0,1,173.5,249.3Z" fill="#ec88b3"/><path d="M229.9,243.7a50.3,50.3,0,0,1,1.1-8.5,89.8,89.8,0,0,0,1.5-15.1c.3-6.2.4-15.6.4-28.1s-.1-21.5-.4-28.1a111.8,111.8,0,0,0-1.5-15.1,50.3,50.3,0,0,1-1.1-8.5c0-6.1,2.3-9,6.7-9h34.1c9.1,0,16.4,2.9,22,8.8S301,155,301,167c0,7-.9,12.5-2.8,16.8a22.5,22.5,0,0,1-7.4,9.8,2.4,2.4,0,0,0-1.3,1.9,3.1,3.1,0,0,0,1.3,2.2,24.6,24.6,0,0,1,7.6,10.3,99.2,99.2,0,0,1,4.7,17.8c.4,1.8.9,4.2,1.7,7.3a38.7,38.7,0,0,1,1.2,4.4c.1,1.2.2,2.6.2,4.1,0,7.5-2.9,11.1-8.9,11.1H279.6c-6,0-9-4-9-11.9,0-3,0-5.4.1-7.3l.2-15.8a15.7,15.7,0,0,0-1.1-6.6c-.8-1.6-1.8-2.3-3.1-2.3a3.3,3.3,0,0,0-3,1.9,12.5,12.5,0,0,0-.9,5.2,64.1,64.1,0,0,0,.6,8.5,57.9,57.9,0,0,0,1.5,8.4c.3.8.7,2.2,1.3,4.5a22.3,22.3,0,0,1,.9,5.9c0,6.4-2.5,9.5-7.4,9.5H236.6C232.2,252.7,229.9,249.8,229.9,243.7Zm40-64.9c1.3-1.7,1.9-4.3,1.9-8s-.6-6.2-1.8-8-2.7-2.6-4.5-2.6a2.3,2.3,0,0,0-2.1.9,5.6,5.6,0,0,0-.6,3.1v13.4c0,2.6.9,4,2.7,4S268.6,180.7,269.9,178.8Z" fill="#ec88b3"/><path d="M341,248.4c-2.2-3-3.8-7.3-4.4-13-1.8-18.2-4.3-41.8-7.3-70.8a126.1,126.1,0,0,0-3.2-17.9,18.6,18.6,0,0,1-.9-5.5c0-3.2.7-5.6,2-7.3s3.2-2.6,5.9-2.6h18a8.6,8.6,0,0,1,6.8,2.7c1.6,2,2.5,4.7,2.5,8.4,0,1.4-.2,3.1-.4,5a119.1,119.1,0,0,0-.8,14.6c0,4.8.2,9.9.6,14.9.1,1,.6,1.6,1.3,1.6s.4-.2.7-.4a3,3,0,0,0,.5-1c1.3-9.2,2.3-20.2,3.4-32.8.7-8.7,4.2-13,10.4-13h8c3.4,0,5.9,1,7.6,3.1s2.6,5.4,3,10.1c.9,11.2,2,22.5,3.2,33.6.1,1.1.4,1.6,1,1.6s1.2-.5,1.3-1.8q.9-9.6.9-17.7c0-5.3-.4-11.4-1-17.8-.1-1.4-.2-2.5-.2-3a10,10,0,0,1,1.6-6,6,6,0,0,1,5-2.1h13a6.9,6.9,0,0,1,5.3,2.1c1.2,1.3,1.8,3.4,1.8,6.2a35.6,35.6,0,0,1-1.2,7.6c-.6,2.1-1.2,5.4-2,9.7s-1.7,9.2-2.4,14.1c-1.7,11.6-4.6,33.5-9,65.8-.7,5.2-2,9.2-4,11.8s-5.2,4.1-9.2,4.1h-4.9a11.4,11.4,0,0,1-9.4-4.3c-2.5-2.8-4.1-7-4.7-12.7-.3-3.3-.8-6.2-1.2-9-1-7.3-1.9-14.6-2.5-21.7a5.3,5.3,0,0,0-.4-1.6c-.3-.3-.5-.5-.7-.5s-1.2.7-1.4,2.1c-.8,10.2-1.7,20.5-2.8,30.7s-5.8,17-13.8,17h-6C346.6,252.7,343.3,251.3,341,248.4Z" fill="#ec88b3"/><path d="M423.6,249.8a13.3,13.3,0,0,1-1.9-7.5,26.1,26.1,0,0,1,1.1-7.1c4.4-16,11.3-45.5,20.4-88.7,1.2-5.7,2.8-9.7,4.8-11.9a9.3,9.3,0,0,1,7.4-3.3h10a10.4,10.4,0,0,1,8,3.3c2.1,2.2,3.8,6,5,11.4q5,22.6,11.8,50.9c4.7,18.9,8,31.7,10.1,38.8a24.2,24.2,0,0,1,1,6.1,14.6,14.6,0,0,1-1.9,7.8,5.9,5.9,0,0,1-5.1,3.1H466.4a5.1,5.1,0,0,1-4.8-2.6,11.5,11.5,0,0,1-1.6-6.4,16.9,16.9,0,0,1,.8-5.2,26.3,26.3,0,0,0,1.3-6.9c0-3-1-4.6-2.9-4.7a15.5,15.5,0,0,0-4.3,0,2.9,2.9,0,0,0-2.3,1.5,7.3,7.3,0,0,0-.8,3.9,19.3,19.3,0,0,0,1.2,6.9,23,23,0,0,1,.5,4.5,12.1,12.1,0,0,1-1.4,6.2,4.4,4.4,0,0,1-4.3,2.8H429.1A6.3,6.3,0,0,1,423.6,249.8Zm35.8-53.6c1,0,1.5-.7,1.4-1.9-.5-4.6-1.2-9.2-2.1-14.3q-.4-2.1-1.5-2.1c-.7,0-1.2.7-1.4,2.1l-2.1,14.8h0c0,.9.3,1.3.9,1.3Z" fill="#ec88b3"/><path d="M515.2,250.3a10.6,10.6,0,0,1-1.7-6.2,30.7,30.7,0,0,1,1-6.3,71.9,71.9,0,0,0,2.3-18.9v-2.4a46.8,46.8,0,0,0-.5-7,55.4,55.4,0,0,0-1.9-6.7c-3.8-10.6-9-24.3-15.6-40.8a42.1,42.1,0,0,0-3.1-7c-1.3-2.9-2.2-5.2-2.7-6.7a21.9,21.9,0,0,1-.7-6.3,13.6,13.6,0,0,1,2.1-7.4,6.5,6.5,0,0,1,6.1-3.3h29.4a6.2,6.2,0,0,1,5.3,2.9,15.2,15.2,0,0,1,1.7,7.1,26.7,26.7,0,0,1-1.6,9.1,19.9,19.9,0,0,0-.9,2.9,16.9,16.9,0,0,0-.3,3.3,25.8,25.8,0,0,0,.3,4.2c.3,1.2.8,2.7,1.3,4.7a14.6,14.6,0,0,0,1.4,3.2,1.6,1.6,0,0,0,1.4,1.1,2.1,2.1,0,0,0,1.3-.9,23.6,23.6,0,0,0,1.4-3.4,26.5,26.5,0,0,0,1.8-8.9,32.4,32.4,0,0,0-1.1-7.6,38.7,38.7,0,0,1-.9-7.3,13.5,13.5,0,0,1,2-7.7,6,6,0,0,1,5.2-2.7h17A5.4,5.4,0,0,1,570,134a12.3,12.3,0,0,1,1.9,7.3,19.6,19.6,0,0,1-.7,5.8c-.6,1.5-1.5,3.6-2.8,6.4a67.4,67.4,0,0,0-3.9,8.3c-1.6,3.8-3.9,10.1-7.2,18.6l-2.1,5.9c-2.7,7.4-4.6,13-5.7,17a49.2,49.2,0,0,0-1.6,13.2v2.4a79.4,79.4,0,0,0,2.2,18.9,30.7,30.7,0,0,1,1,6.3,10.6,10.6,0,0,1-1.6,6.2,5.1,5.1,0,0,1-4.4,2.4H519.5A5,5,0,0,1,515.2,250.3Z" fill="#ec88b3"/><path d="M30.7,71a.4.4,0,0,1-.4-.4c-1.5-5.7-5-14.6-9.1-24.8-1.8-4.3-3.6-8.8-5.3-13.4s-3.1-7.3-4.3-10c-3.5-7.7-5.2-11.6-.7-15.2a.4.4,0,0,1,.7.1.5.5,0,0,1-.1.7c-3.9,3.1-2.5,6.3,1,14,1.2,2.7,2.7,6,4.3,10s3.6,9.1,5.3,13.4c4.1,10.3,7.7,19.2,9.1,25a.5.5,0,0,1-.3.6Z" fill="#cf2d42"/><path d="M29.7,103.3h-.1a.6.6,0,0,1-.4-.6c2.1-6.2,2.1-11.5,2.1-17.6a.5.5,0,0,1,.5-.5.5.5,0,0,1,.5.5c0,6.2,0,11.5-2.1,17.9A.5.5,0,0,1,29.7,103.3Z" fill="#cf2d42"/><path d="M51.9,38.6h-.2a.5.5,0,0,1-.2-.6c4-7.6,3-13.6,2.1-18.8-.6-3.4-1.2-6.5-.2-9.5a.5.5,0,0,1,.9.3c-.8,2.8-.3,5.7.2,9,1,5.4,2,11.6-2.1,19.4A.5.5,0,0,1,51.9,38.6Z" fill="#cf2d42"/><path d="M29.1,233.5h-.2c-.2-.1-.4-.4-.3-.6,2.7-9.1,1.5-24.2-.4-31.2s-5.2-15-9.4-25.5l-5-12.8c-1.5-3.9-3-7.3-4.3-9.9-3.4-7.8-5.2-11.6-.6-15.3a.6.6,0,0,1,.7.1.6.6,0,0,1-.1.7c-4,3.2-2.5,6.4,1,14,1.2,2.7,2.7,6.1,4.2,10.1l5.1,12.8c4.2,10.5,7.8,19.6,9.4,25.5s3.2,22.4.4,31.8A.5.5,0,0,1,29.1,233.5Z" fill="#cf2d42"/><path d="M53.4,167.5h-.2a.4.4,0,0,1-.2-.7c3.9-7.5,2.9-13.5,2-18.7-.5-3.4-1.1-6.5-.1-9.5,0-.3.3-.4.6-.3s.4.3.3.6c-.9,2.7-.4,5.6.2,9,.9,5.4,2,11.5-2.2,19.4C53.8,167.4,53.6,167.5,53.4,167.5Z" fill="#cf2d42"/><path d="M101.8,111.6h-.1c-2.6-1.1-17.1-11.9-19.6-34-4.2-37.3,2.4-60.2,20.4-70a.6.6,0,0,1,.7.2.6.6,0,0,1-.2.7c-17.6,9.6-24.1,32.1-19.9,69,2.4,21.6,16.5,32.1,18.9,33.1.3.2.4.4.3.7A.5.5,0,0,1,101.8,111.6Z" fill="#cf2d42"/><path d="M119.2,67.7h0a.5.5,0,0,1-.5-.5c.7-33.7-1.9-40.5-7.3-41.8-.2,0-.4-.3-.3-.6s.3-.4.6-.3c6,1.4,8.8,8.1,8,42.7A.5.5,0,0,1,119.2,67.7Z" fill="#cf2d42"/><path d="M104.1,245.9h-.2c-2.6-1.1-17-12.3-19.4-35.2-4.2-38.6,2.4-62.3,20.2-72.4a.5.5,0,0,1,.7.2.7.7,0,0,1-.2.7c-17.4,9.9-23.9,33.2-19.7,71.4,2.4,22.4,16.3,33.3,18.8,34.4a.6.6,0,0,1,.2.7A.5.5,0,0,1,104.1,245.9Z" fill="#cf2d42"/><path d="M124.3,199.8h0a.5.5,0,0,1-.5-.5c.8-33.7-1.8-40.5-7.2-41.8a.4.4,0,0,1-.4-.6.5.5,0,0,1,.6-.3c6,1.4,8.8,8.1,8,42.7A.5.5,0,0,1,124.3,199.8Z" fill="#cf2d42"/><path d="M394.9,111.6h-.2c-2.6-1.1-17.1-11.9-19.6-34-4.2-37.3,2.5-60.2,20.4-70a.6.6,0,0,1,.7.2.4.4,0,0,1-.2.7c-17.5,9.6-24,32.1-19.9,69,2.5,21.6,16.5,32.1,19,33.1.2.2.4.4.3.7A.5.5,0,0,1,394.9,111.6Z" fill="#cf2d42"/><path d="M412.3,67.7h-.1a.4.4,0,0,1-.4-.5c.7-33.7-1.9-40.5-7.3-41.8a.4.4,0,0,1-.4-.6.5.5,0,0,1,.6-.3c6.1,1.4,8.8,8.1,8.1,42.7C412.7,67.5,412.5,67.7,412.3,67.7Z" fill="#cf2d42"/><path d="M173.6,112.2h-.2C162.9,107.6,157,98.6,154.5,83c-1.9-11-.8-28.7,0-41.6.3-5.2.5-9.7.5-12.5a53.1,53.1,0,0,0-1-9.4c-.8-5.2-1.6-9.8,1.8-13a.5.5,0,1,1,.7.7c-3,2.9-2.3,7-1.5,12.2a53.3,53.3,0,0,1,1,9.5c0,2.9-.2,7.4-.5,12.6-.8,12.8-1.9,30.4-.1,41.3,2.6,15.3,8.2,24,18.4,28.5.2.1.4.4.3.6A.5.5,0,0,1,173.6,112.2Z" fill="#cf2d42"/><path d="M183.3,246.2h-.2c-10.5-4.7-16.4-14.1-18.9-30.2-1.9-11.5-.8-29.7,0-43.1.3-5.4.5-10.1.5-13a56.7,56.7,0,0,0-1-9.7c-.8-5.5-1.6-10.2,1.8-13.6.1-.2.5-.2.7,0s.2.6,0,.7c-3,3.1-2.3,7.3-1.5,12.7a59.2,59.2,0,0,1,1,9.9c0,3-.2,7.6-.5,13.1-.8,13.3-1.9,31.5,0,42.8,2.5,15.8,8.1,24.9,18.3,29.5a.5.5,0,0,1,.3.7A.5.5,0,0,1,183.3,246.2Z" fill="#cf2d42"/><path d="M191,82.5a.5.5,0,0,1-.5-.3.5.5,0,0,1,.2-.6c5.3-2.8,5.1-13.1,4.8-27.4,0-2.6,0-5.3-.1-8.1a171.9,171.9,0,0,0-2-23.4c-1.1-8.2-1.9-14.1-.1-16.2a.5.5,0,0,1,.7-.1.5.5,0,0,1,0,.7c-1.4,1.8-.6,7.8.4,15.5a173.4,173.4,0,0,1,2,23.5c.1,2.8.1,5.5.1,8.1.3,14.6.5,25.2-5.3,28.2Z" fill="#cf2d42"/><path d="M202.4,216l-.5-.2a.6.6,0,0,1,.2-.7c5.3-2.9,5.1-13.7,4.8-28.6,0-2.7,0-5.6-.1-8.5a188.1,188.1,0,0,0-2-24.5c-1.1-8.5-1.9-14.7-.2-16.9a.5.5,0,0,1,.7-.1.4.4,0,0,1,.1.7c-1.4,1.9-.6,8.2.4,16.2a189.8,189.8,0,0,1,2,24.6c.1,2.9.1,5.7.1,8.4.3,15.3.5,26.4-5.3,29.6Z" fill="#cf2d42"/><path d="M224,100.6h-.1a.5.5,0,0,1-.4-.6c3-11.6,2.6-58,1.6-71.8-.4-4.1-.8-7.4-1.2-10.1-.8-6.1-1.2-9.1,1.4-10.8a.5.5,0,0,1,.7.1c.1.3.1.6-.2.7-2,1.3-1.6,4-.9,9.9.4,2.7.8,6,1.2,10.1,1,13.9,1.4,60.4-1.6,72.2A.5.5,0,0,1,224,100.6Z" fill="#cf2d42"/><path d="M261.8,107.9a.5.5,0,0,1-.5-.3c-1.5-5.1-1.2-11.4-.8-17.5s.8-14.8-3-17.1a.5.5,0,0,1-.2-.7.6.6,0,0,1,.7-.2c4.3,2.7,3.9,10.1,3.5,18-.4,6-.7,12.2.8,17.2.1.2-.1.5-.3.6Z" fill="#cf2d42"/><path d="M257.2,51H257a.4.4,0,0,1-.2-.7c5.5-9.3,3.7-16.3,2.1-19.6s-6.1-7.2-8.8-7.6c-.3,0-.4-.3-.4-.6s.3-.4.6-.4c3.5.5,7.4,3.9,9.5,8.2s3.6,10.9-2.2,20.5C257.5,50.9,257.4,51,257.2,51Z" fill="#cf2d42"/><path d="M237.6,232.6h-.1a.6.6,0,0,1-.4-.6c3-12,2.6-59.8,1.5-74-.3-4.2-.7-7.6-1.1-10.4-.8-6.2-1.2-9.4,1.4-11.1a.5.5,0,0,1,.7.1.6.6,0,0,1-.2.7c-2,1.4-1.7,4.1-.9,10.2.4,2.8.8,6.2,1.1,10.4,1.1,14.3,1.5,62.2-1.5,74.3A.7.7,0,0,1,237.6,232.6Z" fill="#cf2d42"/><path d="M278.8,238.5c-.3,0-.5-.1-.5-.3-1.6-5.1-1.2-11.4-.9-17.5s.8-14.8-3-17.1a.5.5,0,1,1,.5-.9c4.4,2.7,3.9,10.1,3.5,18-.3,6-.7,12.3.8,17.2a.4.4,0,0,1-.3.6Z" fill="#cf2d42"/><path d="M274.2,181.6h-.3a.6.6,0,0,1-.2-.7c5.6-9.2,3.7-16.3,2.1-19.6s-6.1-7.2-8.7-7.6a.5.5,0,0,1-.5-.5.6.6,0,0,1,.6-.5c3.5.5,7.5,3.9,9.5,8.2s3.7,10.9-2.1,20.5A.5.5,0,0,1,274.2,181.6Z" fill="#cf2d42"/><path d="M316.1,82.8H316c-.2-.1-.5-.3-.4-.6.6-12.5.3-40.1-.7-52.6-.3-4.1-.9-7.6-1.3-10.3-1-5.4-1.6-9,.9-11.9a.5.5,0,0,1,.8.6c-2.2,2.6-1.7,5.8-.7,11.1.4,2.8,1,6.2,1.3,10.4,1,12.6,1.3,40.2.7,52.8C316.5,82.6,316.3,82.8,316.1,82.8Z" fill="#cf2d42"/><path d="M342.7,91.8c-.2,0-.4-.2-.5-.5a.5.5,0,0,1,.5-.5c5.3-.2,8.4-5.3,11.6-10.6l1.8-3.1a.5.5,0,0,1,.7-.1.6.6,0,0,1,.2.7c-.7,1-1.3,2-1.9,3-3.2,5.4-6.5,10.9-12.3,11.1Z" fill="#cf2d42"/><path d="M315.2,110.7H315c-3.2-1.3-2.3-5.6-1.2-10.7a46.2,46.2,0,0,0,1.1-6.3c.1-.3.3-.5.6-.4s.5.2.4.5c-.2,2.1-.7,4.3-1.1,6.4-1,4.6-1.8,8.6.5,9.5a.5.5,0,0,1,.3.7C315.6,110.6,315.4,110.7,315.2,110.7Z" fill="#cf2d42"/><path d="M464.1,106.6a.4.4,0,0,1-.4-.4c-.2-.5-12.1-52.1-15.5-67.6-1.2-5.5-2.5-10.1-3.6-14.2-2.1-7.4-3.5-12.4-2-15,.2-.3.5-.4.7-.2a.4.4,0,0,1,.2.7c-1.3,2.3,0,7,2.1,14.3,1,3.8,2.4,8.7,3.6,14.2,3.4,15.5,15.3,67.1,15.4,67.6s-.1.6-.3.6Z" fill="#cf2d42"/><path d="M482,57.7h-.1c-.2,0-.4-.3-.4-.5s4.6-27.9,4.9-32.3a53.5,53.5,0,0,0-.3-8.3c-.4-3.8-.7-6.8,1.3-8.9a.5.5,0,0,1,.7.7c-1.6,1.7-1.4,4.4-1,8.1a56.2,56.2,0,0,1,.3,8.5c-.3,4.4-4.7,31.2-4.9,32.3S482.3,57.7,482,57.7Z" fill="#cf2d42"/><path d="M518.3,90.9h-.1c-.3,0-.5-.2-.4-.5,1.9-18.8-.4-67.2-2.1-73.8s-.4-8.9,2.1-10.1a.7.7,0,0,1,.7.2.5.5,0,0,1-.3.7c-1.8.9-3.3,1.7-1.5,9s4,55.2,2.1,74.1A.7.7,0,0,1,518.3,90.9Z" fill="#cf2d42"/><path d="M344.1,237a.5.5,0,0,1-.5-.5c-.1-.7-8.1-70.5-9.6-79.6-.3-2.2-.8-4.3-1.2-6.1-1.3-6.2-2.2-10.6.7-13.4a.5.5,0,1,1,.7.7c-2.5,2.4-1.6,6.6-.4,12.5.4,1.8.9,3.9,1.2,6.1,1.5,9.1,9.5,79,9.6,79.7a.6.6,0,0,1-.5.6Z" fill="#cf2d42"/><path d="M367.4,181.6h-.1c-.3-.1-.5-.3-.4-.6s2.7-19.1,3.6-28.3,1.8-16.6,6.5-17.2a.6.6,0,0,1,.6.5.5.5,0,0,1-.5.5c-3.9.5-4.8,6.8-5.6,16.3s-3.6,28.2-3.6,28.4A.7.7,0,0,1,367.4,181.6Z" fill="#cf2d42"/><path d="M404.1,182.1H404a.5.5,0,0,1-.3-.6c2.5-11.9,2.3-23.9,2.2-32.7s-.2-12.7,1.7-13.2a.4.4,0,0,1,.6.3.5.5,0,0,1-.3.6c-1.2.4-1.1,6.1-1,12.3.1,8.8.3,20.9-2.3,32.9A.5.5,0,0,1,404.1,182.1Z" fill="#cf2d42"/><path d="M391.2,246.7h0c-3.3-.3-4.6-8.5-6.3-21.9-1.3-10-2.8-21.4-5.8-24.6a.5.5,0,0,1,.7-.7c3.2,3.5,4.7,14.5,6.1,25.1s2.7,20.8,5.4,21.1a.5.5,0,0,1,.4.5A.5.5,0,0,1,391.2,246.7Z" fill="#cf2d42"/><path d="M432.1,223.9h-.2c-.2-.1-.4-.4-.3-.6C439,191.2,442.8,171,445,159s3.3-18,5.6-20.2a.5.5,0,1,1,.7.7c-2.1,2-3,6.8-5.3,19.7s-6,32.2-13.5,64.3A.4.4,0,0,1,432.1,223.9Z" fill="#cf2d42"/><path d="M466.6,199.2a.7.7,0,0,1-.5-.4l-5.8-25.9a.6.6,0,0,1,.4-.6.5.5,0,0,1,.6.4l5.8,25.9c.1.2-.1.5-.4.6Z" fill="#cf2d42"/><path d="M467.1,247.4H467c-2.8-.7-1.8-5.9-.7-11.4s1.9-10.1.1-11.1a.4.4,0,0,1-.2-.7.5.5,0,0,1,.7-.1c2.4,1.3,1.4,6.5.4,12.1s-1.9,9.8,0,10.3c.2,0,.4.3.3.6S467.3,247.4,467.1,247.4Z" fill="#cf2d42"/><path d="M522.8,236.1h-.1a.4.4,0,0,1-.4-.6c0-.1,2.8-17.8.3-27.7s-16.3-45.7-20.4-54.4c-2.9-6.4-3.7-10.7-2.5-13.6a6,6,0,0,1,4.2-3.5.4.4,0,0,1,.6.3.4.4,0,0,1-.3.6,5.8,5.8,0,0,0-3.6,3c-1.1,2.6-.3,6.8,2.6,12.8,4,8.7,17.8,44.4,20.4,54.6s-.2,27.4-.3,28.1A.7.7,0,0,1,522.8,236.1Z" fill="#cf2d42"/><path d="M545.4,169.7h-.2a.5.5,0,0,1-.2-.7c4.4-7,3.1-14.3,2.1-20.1s-1.9-11,3.4-13.3a.6.6,0,0,1,.7.2.5.5,0,0,1-.3.7c-4.6,2-3.9,6.3-2.8,12.2s2.3,13.5-2.3,20.8C545.8,169.7,545.6,169.7,545.4,169.7Z" fill="#cf2d42"/></g></g></svg>